<mxfile host="app.diagrams.net" modified="2020-11-10T17:35:34.180Z" agent="5.0 (Windows NT 10.0; Win64; x64) AppleWebKit/537.36 (KHTML, like Gecko) Chrome/86.0.4240.183 Safari/537.36" etag="Oa7fYxxN_qKkr4fyDR1s" version="13.9.3" type="github">
  <diagram id="EQWbpeTha2rHwfhgSZr2" name="Page-1">
    <mxGraphModel dx="868" dy="1558" grid="1" gridSize="10" guides="1" tooltips="1" connect="1" arrows="1" fold="1" page="1" pageScale="1" pageWidth="850" pageHeight="1100" math="0" shadow="0">
      <root>
        <mxCell id="0" />
        <mxCell id="1" parent="0" />
        <mxCell id="6FmQHbYgnRBDfJhYDrEc-29" style="edgeStyle=orthogonalEdgeStyle;rounded=0;orthogonalLoop=1;jettySize=auto;html=1;exitX=0.5;exitY=1;exitDx=0;exitDy=0;entryX=0.45;entryY=0;entryDx=0;entryDy=0;entryPerimeter=0;" edge="1" parent="1" source="6FmQHbYgnRBDfJhYDrEc-1" target="6FmQHbYgnRBDfJhYDrEc-7">
          <mxGeometry relative="1" as="geometry" />
        </mxCell>
        <mxCell id="6FmQHbYgnRBDfJhYDrEc-1" value="App Starts" style="ellipse;whiteSpace=wrap;html=1;" vertex="1" parent="1">
          <mxGeometry x="20" y="20" width="90" height="40" as="geometry" />
        </mxCell>
        <mxCell id="6FmQHbYgnRBDfJhYDrEc-2" value="App Closes" style="ellipse;whiteSpace=wrap;html=1;" vertex="1" parent="1">
          <mxGeometry x="740" y="320" width="120" height="80" as="geometry" />
        </mxCell>
        <mxCell id="6FmQHbYgnRBDfJhYDrEc-32" value="" style="edgeStyle=orthogonalEdgeStyle;rounded=0;orthogonalLoop=1;jettySize=auto;html=1;" edge="1" parent="1" source="6FmQHbYgnRBDfJhYDrEc-4" target="6FmQHbYgnRBDfJhYDrEc-8">
          <mxGeometry relative="1" as="geometry" />
        </mxCell>
        <mxCell id="6FmQHbYgnRBDfJhYDrEc-4" value="New Hospital-Locator Objects are created and stored" style="shape=dataStorage;whiteSpace=wrap;html=1;fixedSize=1;size=10;" vertex="1" parent="1">
          <mxGeometry y="340" width="130" height="90" as="geometry" />
        </mxCell>
        <mxCell id="6FmQHbYgnRBDfJhYDrEc-31" style="edgeStyle=orthogonalEdgeStyle;rounded=0;orthogonalLoop=1;jettySize=auto;html=1;exitX=0.5;exitY=1;exitDx=0;exitDy=0;entryX=0.569;entryY=-0.033;entryDx=0;entryDy=0;entryPerimeter=0;" edge="1" parent="1" source="6FmQHbYgnRBDfJhYDrEc-6" target="6FmQHbYgnRBDfJhYDrEc-4">
          <mxGeometry relative="1" as="geometry" />
        </mxCell>
        <mxCell id="6FmQHbYgnRBDfJhYDrEc-6" value="Get Data from NYC Open Data" style="shape=process;whiteSpace=wrap;html=1;backgroundOutline=1;" vertex="1" parent="1">
          <mxGeometry x="10" y="240" width="120" height="60" as="geometry" />
        </mxCell>
        <mxCell id="6FmQHbYgnRBDfJhYDrEc-30" style="edgeStyle=orthogonalEdgeStyle;rounded=0;orthogonalLoop=1;jettySize=auto;html=1;exitX=0;exitY=0;exitDx=60;exitDy=70;exitPerimeter=0;entryX=0.5;entryY=0;entryDx=0;entryDy=0;" edge="1" parent="1" source="6FmQHbYgnRBDfJhYDrEc-7" target="6FmQHbYgnRBDfJhYDrEc-6">
          <mxGeometry relative="1" as="geometry" />
        </mxCell>
        <mxCell id="6FmQHbYgnRBDfJhYDrEc-7" value="Greetings Display" style="shape=callout;whiteSpace=wrap;html=1;perimeter=calloutPerimeter;" vertex="1" parent="1">
          <mxGeometry x="10" y="120" width="120" height="70" as="geometry" />
        </mxCell>
        <mxCell id="6FmQHbYgnRBDfJhYDrEc-33" value="" style="edgeStyle=orthogonalEdgeStyle;rounded=0;orthogonalLoop=1;jettySize=auto;html=1;entryX=0.588;entryY=1.063;entryDx=0;entryDy=0;entryPerimeter=0;" edge="1" parent="1" source="6FmQHbYgnRBDfJhYDrEc-8" target="6FmQHbYgnRBDfJhYDrEc-16">
          <mxGeometry relative="1" as="geometry">
            <mxPoint x="250" y="303" as="targetPoint" />
          </mxGeometry>
        </mxCell>
        <mxCell id="6FmQHbYgnRBDfJhYDrEc-8" value="Display number list of NYC Boroughs" style="shape=callout;whiteSpace=wrap;html=1;perimeter=calloutPerimeter;" vertex="1" parent="1">
          <mxGeometry x="210" y="345" width="120" height="80" as="geometry" />
        </mxCell>
        <mxCell id="6FmQHbYgnRBDfJhYDrEc-44" value="" style="edgeStyle=orthogonalEdgeStyle;rounded=0;orthogonalLoop=1;jettySize=auto;html=1;" edge="1" parent="1" source="6FmQHbYgnRBDfJhYDrEc-9" target="6FmQHbYgnRBDfJhYDrEc-10">
          <mxGeometry relative="1" as="geometry" />
        </mxCell>
        <mxCell id="6FmQHbYgnRBDfJhYDrEc-9" value="User selects a borough" style="shape=step;perimeter=stepPerimeter;whiteSpace=wrap;html=1;fixedSize=1;" vertex="1" parent="1">
          <mxGeometry x="210" y="120" width="100" height="60" as="geometry" />
        </mxCell>
        <mxCell id="6FmQHbYgnRBDfJhYDrEc-45" value="" style="edgeStyle=orthogonalEdgeStyle;rounded=0;orthogonalLoop=1;jettySize=auto;html=1;" edge="1" parent="1" source="6FmQHbYgnRBDfJhYDrEc-10" target="6FmQHbYgnRBDfJhYDrEc-21">
          <mxGeometry relative="1" as="geometry" />
        </mxCell>
        <mxCell id="6FmQHbYgnRBDfJhYDrEc-10" value="Retrieve hospitals in the selected borough" style="shape=process;whiteSpace=wrap;html=1;backgroundOutline=1;" vertex="1" parent="1">
          <mxGeometry x="200" y="20" width="120" height="60" as="geometry" />
        </mxCell>
        <mxCell id="6FmQHbYgnRBDfJhYDrEc-34" value="" style="edgeStyle=orthogonalEdgeStyle;rounded=0;orthogonalLoop=1;jettySize=auto;html=1;" edge="1" parent="1" source="6FmQHbYgnRBDfJhYDrEc-16" target="6FmQHbYgnRBDfJhYDrEc-9">
          <mxGeometry relative="1" as="geometry" />
        </mxCell>
        <mxCell id="6FmQHbYgnRBDfJhYDrEc-16" value="" style="rhombus;whiteSpace=wrap;html=1;" vertex="1" parent="1">
          <mxGeometry x="220" y="210" width="80" height="80" as="geometry" />
        </mxCell>
        <mxCell id="6FmQHbYgnRBDfJhYDrEc-17" value="User decides&amp;nbsp;" style="text;html=1;strokeColor=none;fillColor=none;align=center;verticalAlign=middle;whiteSpace=wrap;rounded=0;" vertex="1" parent="1">
          <mxGeometry x="230" y="240" width="40" height="20" as="geometry" />
        </mxCell>
        <mxCell id="6FmQHbYgnRBDfJhYDrEc-46" value="" style="edgeStyle=orthogonalEdgeStyle;rounded=0;orthogonalLoop=1;jettySize=auto;html=1;" edge="1" parent="1" source="6FmQHbYgnRBDfJhYDrEc-21" target="6FmQHbYgnRBDfJhYDrEc-23">
          <mxGeometry relative="1" as="geometry" />
        </mxCell>
        <mxCell id="6FmQHbYgnRBDfJhYDrEc-21" value="Display hospitals in the selected borough" style="shape=callout;whiteSpace=wrap;html=1;perimeter=calloutPerimeter;" vertex="1" parent="1">
          <mxGeometry x="380" y="20" width="120" height="80" as="geometry" />
        </mxCell>
        <mxCell id="6FmQHbYgnRBDfJhYDrEc-49" style="edgeStyle=orthogonalEdgeStyle;rounded=0;orthogonalLoop=1;jettySize=auto;html=1;exitX=0.5;exitY=1;exitDx=0;exitDy=0;entryX=0.425;entryY=-0.037;entryDx=0;entryDy=0;entryPerimeter=0;" edge="1" parent="1" source="6FmQHbYgnRBDfJhYDrEc-23" target="6FmQHbYgnRBDfJhYDrEc-24">
          <mxGeometry relative="1" as="geometry" />
        </mxCell>
        <mxCell id="6FmQHbYgnRBDfJhYDrEc-23" value="User decides" style="rhombus;whiteSpace=wrap;html=1;" vertex="1" parent="1">
          <mxGeometry x="400" y="160" width="80" height="80" as="geometry" />
        </mxCell>
        <mxCell id="6FmQHbYgnRBDfJhYDrEc-50" value="" style="edgeStyle=orthogonalEdgeStyle;rounded=0;orthogonalLoop=1;jettySize=auto;html=1;" edge="1" parent="1" source="6FmQHbYgnRBDfJhYDrEc-24" target="6FmQHbYgnRBDfJhYDrEc-25">
          <mxGeometry relative="1" as="geometry" />
        </mxCell>
        <mxCell id="6FmQHbYgnRBDfJhYDrEc-24" value="User chooses cross-streets or physical locations" style="shape=step;perimeter=stepPerimeter;whiteSpace=wrap;html=1;fixedSize=1;" vertex="1" parent="1">
          <mxGeometry x="390" y="320" width="120" height="80" as="geometry" />
        </mxCell>
        <mxCell id="6FmQHbYgnRBDfJhYDrEc-52" value="" style="edgeStyle=orthogonalEdgeStyle;rounded=0;orthogonalLoop=1;jettySize=auto;html=1;entryX=0;entryY=0;entryDx=60;entryDy=80;entryPerimeter=0;" edge="1" parent="1" source="6FmQHbYgnRBDfJhYDrEc-25" target="6FmQHbYgnRBDfJhYDrEc-26">
          <mxGeometry relative="1" as="geometry">
            <mxPoint x="660" y="260" as="targetPoint" />
          </mxGeometry>
        </mxCell>
        <mxCell id="6FmQHbYgnRBDfJhYDrEc-25" value="Retrieve cross-streets or physical location" style="shape=process;whiteSpace=wrap;html=1;backgroundOutline=1;" vertex="1" parent="1">
          <mxGeometry x="590" y="340" width="120" height="60" as="geometry" />
        </mxCell>
        <mxCell id="6FmQHbYgnRBDfJhYDrEc-53" value="" style="edgeStyle=orthogonalEdgeStyle;rounded=0;orthogonalLoop=1;jettySize=auto;html=1;" edge="1" parent="1" source="6FmQHbYgnRBDfJhYDrEc-26" target="6FmQHbYgnRBDfJhYDrEc-27">
          <mxGeometry relative="1" as="geometry" />
        </mxCell>
        <mxCell id="6FmQHbYgnRBDfJhYDrEc-26" value="Display hospitals based on users selection" style="shape=callout;whiteSpace=wrap;html=1;perimeter=calloutPerimeter;" vertex="1" parent="1">
          <mxGeometry x="600" y="150" width="120" height="80" as="geometry" />
        </mxCell>
        <mxCell id="6FmQHbYgnRBDfJhYDrEc-57" style="edgeStyle=orthogonalEdgeStyle;rounded=0;orthogonalLoop=1;jettySize=auto;html=1;exitX=1;exitY=0.5;exitDx=0;exitDy=0;entryX=0.5;entryY=0;entryDx=0;entryDy=0;" edge="1" parent="1" source="6FmQHbYgnRBDfJhYDrEc-27" target="6FmQHbYgnRBDfJhYDrEc-2">
          <mxGeometry relative="1" as="geometry">
            <mxPoint x="800" y="60" as="targetPoint" />
          </mxGeometry>
        </mxCell>
        <mxCell id="6FmQHbYgnRBDfJhYDrEc-66" style="edgeStyle=orthogonalEdgeStyle;rounded=0;orthogonalLoop=1;jettySize=auto;html=1;exitX=0.5;exitY=0;exitDx=0;exitDy=0;entryX=0;entryY=0;entryDx=0;entryDy=25;entryPerimeter=0;" edge="1" parent="1" source="6FmQHbYgnRBDfJhYDrEc-27" target="6FmQHbYgnRBDfJhYDrEc-8">
          <mxGeometry relative="1" as="geometry">
            <mxPoint x="160" y="360" as="targetPoint" />
          </mxGeometry>
        </mxCell>
        <mxCell id="6FmQHbYgnRBDfJhYDrEc-27" value="Start over / End?" style="rhombus;whiteSpace=wrap;html=1;" vertex="1" parent="1">
          <mxGeometry x="620" y="20" width="80" height="80" as="geometry" />
        </mxCell>
      </root>
    </mxGraphModel>
  </diagram>
</mxfile>
